<svg xmlns="http://www.w3.org/2000/svg" xmlns:xlink="http://www.w3.org/1999/xlink" viewBox="0 0 1281 230">
  <defs>
    <style>
      .cls-1 {
        clip-path: url(#clip-word-programm);
      }

      .cls-2 {
        fill: #f2f2f3;
      }
    </style>
    <clipPath id="clip-word-programm">
      <rect width="1281" height="230"/>
    </clipPath>
  </defs>
  <g id="word-programm" class="cls-1">
    <path id="Path_2" data-name="Path 2" class="cls-2" d="M80.511-61.785c43.233,0,61.872-23.04,61.872-57.385,0-33.827-17.949-57.557-61.958-57.557H15.1V0H49.187V-148.078H80.425c20.883,0,28.218,12.6,28.218,28.908s-7.335,29.081-28.131,29.081H37.71v28.3Zm163.438-68.43c-3.883-2.244-10.7-4.142-17.6-4.142-12.944,0-25.111,7.162-28.908,20.624h-1.122v-18.812H162.748V0h33.568V-75.161c.086-14.67,9.665-28.563,25.543-28.563a26.61,26.61,0,0,1,11.649,2.589ZM311.861,2.5c37.969,0,61.7-28.218,61.7-68.516,0-40.557-23.73-68.257-61.7-68.257-38.055,0-61.7,27.7-61.7,68.257C250.162-25.715,273.806,2.5,311.861,2.5Zm0-27.441c-20.969,0-29.6-17.6-29.6-41.075,0-23.558,8.629-41.075,29.6-41.075,20.883,0,29.6,17.517,29.6,41.075C341.46-42.542,332.744-24.939,311.861-24.939ZM479.614-132.114v15.964H477.8c-4.487-9.061-14.929-18.121-32.619-18.121-28.735,0-52.811,23.3-52.811,67.049C392.372-23.213,416.793-2.5,445.1-2.5c19.071,0,28.994-9.578,32.791-16.568h1.985V-5.7c.086,20.192-12.6,28.39-30.375,28.39-16.654,0-27.182-7.68-34.431-13.979L398.586,30.634c7.594,9.492,26.578,19.761,51.862,19.761,35.9,0,62.217-18.208,62.217-54.019v-128.49Zm-55.4,64.806c0-23.385,9.924-39.781,29.771-39.781,19.934,0,28.3,17.431,28.3,39.781,0,23.04-8.716,38.055-28.3,38.055C435.26-29.253,424.214-42.715,424.214-67.308ZM622.17-130.215c-3.883-2.244-10.7-4.142-17.6-4.142-12.944,0-25.111,7.162-28.908,20.624h-1.122v-18.812H540.968V0h33.568V-75.161c.086-14.67,9.665-28.563,25.543-28.563a26.61,26.61,0,0,1,11.65,2.589ZM710.792,0h32.36V-88.968c0-33.654-25.8-45.3-52.034-45.3-28.3,0-50.136,13.2-56.263,37.624l31.065,5.954c3.107-9.406,10.959-16.482,23.644-16.482,11.132,0,19.847,5.7,19.847,17.517v1.985c0,6.99-12.167,7.421-23.817,8.716-33.568,3.107-53.329,15.964-53.329,41.593s19.5,40.04,44.009,40.04c18.9,0,29.339-8.716,33.482-16.137h1.035Zm-1.381-44.182c0,11.563-11.218,21.487-26.06,21.487-11.045,0-18.553-5.609-18.553-15.1,0-11.477,8.112-16.827,23.989-18.639,6.04-.777,18.121-2.5,20.624-5.264ZM878.372-82.5c0-15.792,7.766-24.162,20.8-24.162,9.837,0,19.588,5.436,19.588,22.35V0h33.482V-84.049c0-36.415-17.949-50.222-40.3-50.222-17.69,0-31.411,9.233-37.624,20.02h-1.381c-5.609-12.167-16.913-20.02-32.964-20.02-16.482,0-28.131,8.543-34.517,18.553h-1.122v-16.827H771.456V0h33.568V-82.064c0-16.654,9.665-24.593,20.71-24.593,11.563,0,19.934,6.558,19.934,22.609V0h32.7Zm209.087,0c0-15.792,7.766-24.162,20.8-24.162,9.837,0,19.589,5.436,19.589,22.35V0h33.481V-84.049c0-36.415-17.949-50.222-40.3-50.222-17.69,0-31.411,9.233-37.624,20.02h-1.381c-5.609-12.167-16.913-20.02-32.964-20.02-16.482,0-28.131,8.543-34.517,18.553h-1.122v-16.827H980.543V0h33.568V-82.064c0-16.654,9.665-24.593,20.71-24.593,11.563,0,19.934,6.558,19.934,22.609V0h32.7ZM1263.41,0h32.36V-88.968c0-33.654-25.8-45.3-52.034-45.3-28.3,0-50.136,13.2-56.263,37.624l31.065,5.954c3.107-9.406,10.959-16.482,23.644-16.482,11.132,0,19.847,5.7,19.847,17.517v1.985c0,6.99-12.167,7.421-23.817,8.716-33.568,3.107-53.329,15.964-53.329,41.593s19.5,40.04,44.009,40.04c18.9,0,29.339-8.716,33.482-16.137h1.036Zm-1.381-44.182c0,11.563-11.218,21.487-26.06,21.487-11.046,0-18.553-5.609-18.553-15.1,0-11.477,8.111-16.827,23.989-18.639,6.041-.777,18.121-2.5,20.624-5.264Z" transform="translate(-15.101 176.727)"/>
  </g>
</svg>
