<svg xmlns="http://www.w3.org/2000/svg" xmlns:xlink="http://www.w3.org/1999/xlink" viewBox="0 0 807 182">
  <defs>
    <style>
      .cls-1 {
        clip-path: url(#clip-word-news);
      }

      .cls-2 {
        fill: #f2f2f3;
      }
    </style>
    <clipPath id="clip-word-news">
      <rect width="807" height="182"/>
    </clipPath>
  </defs>
  <g id="word-news" class="cls-1">
    <path id="Path_1" data-name="Path 1" class="cls-2" d="M156.448-176.727H122.535v118.48h-1.553L48.669-176.727H15.1V0H49.187V-118.221h1.467L123.053,0h33.4Zm47.03,33.136c10.873,0,18.984-8.025,18.984-17.776,0-9.492-8.112-17.776-18.984-17.776s-19.157,8.284-19.157,17.776C184.321-151.616,192.605-143.591,203.478-143.591Zm16.741,11.045H186.651V0h33.568ZM307.892,2.5c34.431,0,51.776-19.5,56.608-37.71l-30.03-8.111c-3.538,9.837-10.787,18.38-26.837,18.38-21.659,0-32.015-15.274-32.015-39.953,0-26.233,11.3-42.2,30.634-42.2,17.69,0,27.872,11.908,27.872,27.527H258.533v23.04H365.794V-70.587c0-42.542-25.543-63.684-59.283-63.684-39.608,0-62.735,29.253-62.735,69.724C243.777-23.126,268.2,2.5,307.892,2.5ZM469.518-59.024c0,20.624-9.406,33.136-24.335,33.136-12.685,0-22.177-8.543-22.177-24.334v-82.323H389.439v83.272c0,37.192,22.609,51,44.009,51,16.741,0,29.512-7.507,36.761-17.345h1.381V0H503V-132.545H469.518Zm231.609-73.521H668.509l-18.38,85.861h-1.553l-22.781-85.861H600.51L577.556-46.08H576l-18.121-86.465h-32.7L560.212,0h28.218l23.644-82.582h2.071L637.961,0h28.218Zm16.827,37.02c0,14.756,9.578,30.2,33.913,37.71l12.685,3.624c14.5,4.487,24.076,8.716,24.076,16.223,0,7.939-8.629,13.116-20.8,12.685-14.756-.69-20.969-9.406-24.162-18.208l-30.634,5.954c4.919,23.385,25.543,40.04,56.78,40.04,31.842,0,51.6-17.431,51.6-39.522,0-16.827-11.477-33.136-37.278-40.9L772.75-81.115c-12.685-3.538-20.624-6.472-20.624-13.979,0-7.853,9.32-13.116,20.106-12.426,12.426.69,17.6,8.888,19.761,16.137l29.771-5.178c-4.315-22.35-24.076-37.71-51.6-37.71C742.375-134.271,717.955-118.911,717.955-95.526Z" transform="translate(-15.101 179.143)"/>
  </g>
</svg>
