<svg xmlns="http://www.w3.org/2000/svg" xmlns:xlink="http://www.w3.org/1999/xlink" viewBox="0 0 1063 230">
  <defs>
    <style>
      .cls-1 {
        clip-path: url(#clip-word-projects);
      }

      .cls-2 {
        fill: #f2f2f3;
      }
    </style>
    <clipPath id="clip-word-projects">
      <rect width="1063" height="230"/>
    </clipPath>
  </defs>
  <g id="word-projects" class="cls-1">
    <path id="word-projects-2" data-name="word-projects" class="cls-2" d="M80.511-61.785c43.233,0,61.872-23.04,61.872-57.385,0-33.827-17.949-57.557-61.958-57.557H15.1V0H49.187V-148.078H80.425c20.883,0,28.218,12.6,28.218,28.908s-7.335,29.081-28.131,29.081H37.71v28.3Zm163.438-68.43c-3.883-2.244-10.7-4.142-17.6-4.142-12.944,0-25.111,7.162-28.908,20.624h-1.122v-18.812H162.748V0h33.568V-75.161c.086-14.67,9.665-28.563,25.543-28.563a26.61,26.61,0,0,1,11.649,2.589ZM311.861,2.5c37.969,0,61.7-28.218,61.7-68.516,0-40.557-23.73-68.257-61.7-68.257-38.055,0-61.7,27.7-61.7,68.257C250.162-25.715,273.806,2.5,311.861,2.5Zm0-27.441c-20.969,0-29.6-17.6-29.6-41.075,0-23.558,8.629-41.075,29.6-41.075,20.883,0,29.6,17.517,29.6,41.075C341.46-42.542,332.744-24.939,311.861-24.939ZM414.636-143.591c10.873,0,18.984-8.025,18.984-17.776,0-9.492-8.112-17.776-18.984-17.776s-19.157,8.284-19.157,17.776C395.479-151.616,403.763-143.591,414.636-143.591Zm-16.827,11.045V5.436c0,10.183-3.883,17.431-18.38,17.431h-6.817V50.05h11.132c28.39,0,47.633-14.5,47.633-44.182V-132.545ZM518.791,2.5c34.431,0,51.776-19.5,56.608-37.71l-30.03-8.111c-3.538,9.837-10.787,18.38-26.837,18.38-21.659,0-32.014-15.274-32.014-39.953,0-26.233,11.3-42.2,30.634-42.2,17.69,0,27.872,11.908,27.872,27.527H469.432v23.04H576.693V-70.587c0-42.542-25.543-63.684-59.283-63.684-39.608,0-62.735,29.253-62.735,69.724C454.676-23.126,479.1,2.5,518.791,2.5ZM713.9-90.262c-4.919-26.751-26.664-44.009-56.694-44.009-38.055,0-61.613,28.045-61.613,68,0,40.3,23.385,68.775,61.7,68.775,29.771,0,51-17.259,56.349-42.542l-31.41-4.487c-3.365,11.908-11.649,19.588-24.939,19.588-19.934,0-29.6-16.482-29.6-41.334,0-24.593,9.751-40.816,29.6-40.816,14.67,0,22.263,8.974,25.37,21.487Zm87.76-42.283H778.532v-28.3H744.964v28.3H728.482v24.852h16.482v72.227c0,23.3,17.517,37.192,37.537,37.192,12.34,0,20.71-2.33,23.213-3.365l-5.35-25.8a34.318,34.318,0,0,1-8.457,1.036c-7.335,0-13.375-1.812-13.375-14.152v-67.136h23.126ZM882.773,2.5c34.431,0,51.776-19.5,56.608-37.71l-30.03-8.111c-3.538,9.837-10.786,18.38-26.837,18.38-21.659,0-32.015-15.274-32.015-39.953,0-26.233,11.3-42.2,30.634-42.2,17.69,0,27.872,11.908,27.872,27.527H833.414v23.04H940.676V-70.587c0-42.542-25.543-63.684-59.283-63.684-39.608,0-62.735,29.253-62.735,69.724C818.658-23.126,843.079,2.5,882.773,2.5Zm115.114-75.42c0-20.624,9.32-33.74,24.334-33.74,12.685,0,22.177,8.974,22.177,24.766V0h33.481V-83.272c0-36.847-20.8-51-44.009-51-16.741,0-29.6,7.68-36.761,18.553H995.73v-16.827H964.32V0h33.568Z" transform="translate(-15.101 179.143)"/>
  </g>
</svg>
