<?xml version="1.0" standalone="no"?>
<!DOCTYPE svg PUBLIC "-//W3C//DTD SVG 20010904//EN"
 "http://www.w3.org/TR/2001/REC-SVG-20010904/DTD/svg10.dtd">
<svg version="1.0" xmlns="http://www.w3.org/2000/svg"
 width="1080.000000pt" height="1080.000000pt" viewBox="0 0 1080.000000 1080.000000"
 preserveAspectRatio="xMidYMid meet">
<metadata>
Created by potrace 1.11, written by Peter Selinger 2001-2013
</metadata>
<g transform="translate(0.000000,1080.000000) scale(0.100000,-0.100000)"
fill="#000000" stroke="none">
<path d="M5367 9755 c-1 -2 -33 -5 -72 -9 -168 -15 -289 -60 -535 -202 -102
-58 -203 -116 -225 -129 -160 -91 -392 -225 -400 -232 -5 -5 -21 -14 -35 -20
-14 -7 -46 -25 -72 -40 -26 -15 -157 -91 -290 -167 -134 -77 -244 -143 -246
-148 -2 -4 -9 -8 -14 -8 -6 0 -52 -24 -102 -54 -95 -56 -395 -229 -776 -448
-124 -71 -232 -133 -240 -138 -8 -5 -98 -57 -200 -116 -101 -58 -209 -125
-239 -148 -217 -161 -375 -423 -418 -691 -10 -60 -11 -3541 -1 -3605 35 -235
134 -433 304 -607 44 -46 84 -83 88 -83 5 0 21 -11 38 -25 31 -26 97 -66 255
-156 21 -12 102 -59 181 -105 79 -46 146 -84 150 -84 4 0 7 973 7 2163 -1
1200 3 2181 8 2205 9 45 58 118 92 136 11 6 22 14 25 18 13 17 120 26 167 15
21 -5 242 -125 253 -136 3 -3 28 -17 55 -31 28 -14 78 -42 112 -62 35 -21 67
-38 73 -38 5 0 10 -4 10 -10 0 -5 6 -10 14 -10 7 0 30 -11 50 -25 20 -13 36
-23 36 -20 0 3 104 -56 125 -72 6 -4 45 -26 88 -48 42 -22 77 -43 77 -47 0 -5
4 -8 9 -8 9 0 102 -50 219 -118 32 -18 65 -35 75 -38 9 -4 17 -11 17 -16 0 -5
4 -7 9 -4 5 3 14 -1 21 -9 7 -8 19 -15 26 -15 8 0 14 -5 14 -11 0 -5 4 -8 9
-4 5 3 12 1 16 -4 3 -5 18 -16 33 -24 50 -25 167 -90 204 -114 21 -13 40 -23
42 -23 3 0 33 -17 68 -37 81 -48 137 -79 168 -93 13 -6 27 -15 30 -19 3 -4 34
-22 70 -40 36 -18 72 -39 81 -47 8 -8 18 -14 21 -14 4 0 51 -25 105 -56 54
-31 121 -68 148 -83 28 -15 66 -36 85 -48 182 -104 242 -135 249 -126 6 8 30
22 101 60 19 10 37 21 40 24 3 3 20 12 38 20 17 8 32 17 32 21 0 3 16 12 35
18 19 6 35 15 35 20 0 5 10 12 23 16 12 3 34 15 48 25 14 10 29 16 33 12 3 -3
6 -1 6 5 0 7 4 12 8 12 5 0 75 38 157 85 81 47 151 85 155 85 4 0 19 9 32 20
14 10 28 16 32 13 3 -3 6 -1 6 5 0 7 4 12 9 12 4 0 47 23 95 50 48 28 91 50
96 50 6 0 10 4 10 9 0 5 8 11 18 14 9 3 44 22 77 41 85 49 186 105 275 152 19
11 37 21 40 24 3 3 93 55 200 115 107 60 238 133 290 163 52 30 111 64 130 74
19 11 41 25 48 30 6 6 12 7 12 4 0 -4 7 0 16 8 8 9 20 14 25 11 5 -4 9 -2 9 4
0 5 10 13 23 17 12 4 24 10 27 13 8 11 369 211 388 215 9 1 24 6 32 9 23 8 80
5 80 -5 0 -5 4 -6 10 -3 14 8 81 -28 111 -62 15 -15 35 -44 45 -63 18 -34 19
-109 20 -2218 1 -1201 4 -2186 7 -2188 5 -5 45 14 57 26 5 5 17 12 99 58 116
64 184 104 191 112 3 3 26 16 52 29 166 83 337 226 427 356 93 133 166 308
188 450 10 60 11 3584 1 3635 -25 136 -77 274 -146 390 -113 186 -288 331
-592 491 -25 13 -52 29 -60 35 -14 11 -81 49 -160 90 -19 11 -37 21 -40 24 -3
3 -16 11 -29 18 -48 28 -92 53 -348 201 -144 83 -267 151 -273 151 -5 0 -10 4
-10 9 0 5 -15 16 -32 25 -18 9 -55 29 -83 46 -27 16 -68 39 -90 51 -22 12
-121 69 -220 127 -99 58 -200 116 -225 130 -56 31 -400 229 -420 242 -14 9
-248 143 -356 205 -29 17 -113 65 -188 108 -168 97 -248 133 -351 162 -44 12
-84 23 -90 23 -5 1 -32 4 -60 7 -53 7 -173 13 -178 10z"/>
<path d="M4072 2415 l-1 -774 57 -33 c31 -18 66 -38 77 -45 11 -7 27 -16 35
-20 8 -4 48 -26 88 -50 40 -24 77 -43 81 -43 5 0 11 -3 13 -7 2 -7 166 -102
358 -211 19 -10 59 -33 88 -51 262 -155 587 -188 882 -91 109 36 144 55 520
273 296 172 320 186 393 227 95 53 85 -43 85 824 0 421 -2 766 -5 766 -3 0
-30 -14 -61 -31 -32 -17 -95 -52 -142 -77 -47 -25 -86 -49 -88 -54 -2 -4 -8
-8 -14 -8 -5 0 -38 -16 -74 -36 -35 -19 -66 -35 -70 -34 -4 1 -10 -2 -13 -7
-8 -12 -247 -143 -260 -143 -5 0 -11 -4 -13 -8 -1 -5 -37 -27 -78 -49 -108
-57 -184 -99 -272 -149 -43 -24 -82 -44 -88 -44 -5 0 -10 -3 -10 -7 0 -5 -25
-19 -55 -33 -30 -14 -55 -28 -55 -32 0 -4 -9 -10 -20 -13 -14 -4 -42 5 -83 28
-34 19 -89 49 -122 67 -33 18 -94 52 -135 75 -41 23 -82 45 -90 48 -8 4 -22
11 -30 17 -20 13 -212 120 -216 120 -1 0 -29 15 -61 34 -32 18 -89 50 -128 71
-105 57 -110 60 -115 65 -3 3 -27 16 -55 30 -27 13 -87 46 -133 72 -46 27 -85
48 -87 48 -2 0 -26 13 -54 29 l-49 30 0 -774z"/>
</g>
</svg>
