<?xml version="1.0" encoding="UTF-8"?>
<svg width="95px" height="125px" viewBox="0 0 95 125" version="1.1" xmlns="http://www.w3.org/2000/svg" xmlns:xlink="http://www.w3.org/1999/xlink" style="background: #E85E00;">
    <title>logo/box</title>
    <g stroke="none" stroke-width="1" fill="none" fill-rule="evenodd">
        <g fill="#FFFFFF" fill-rule="nonzero">
            <polygon points="15.3999996 15 48.2999996 41.2 48.2999996 17.6 79.5999996 17.6 79.5999996 84 56.4999996 84 47.7999996 74.9 38.9999996 84 15.3999996 84"></polygon>
            <path d="M25.8999996,109.9 L19.4999996,100.4 L19.4999996,109.9 L15.3999996,109.9 L15.3999996,93 L19.3999996,93 L25.7999996,102.5 L25.7999996,93 L29.8999996,93 L29.8999996,109.9 L25.8999996,109.9 Z M42.0999996,109.9 L39.2999996,109.9 L35.8999996,101.9 L35.8999996,109.9 L32.1999996,109.9 L32.1999996,93 L37.2999996,93 L40.6999996,102.7 L44.0999996,93 L49.1999996,93 L49.1999996,109.9 L45.4999996,109.9 L45.4999996,101.9 L42.0999996,109.9 Z M74.5999996,109.9 L70.8999996,109.9 L70.8999996,97.3 L65.8999996,97.3 L65.8999996,93 L79.5999996,93 L79.5999996,97.3 L74.5999996,97.3 L74.5999996,109.9 Z M62.9999996,105.7 L63.4999996,105.7 L63.4999996,109.5 L63.2999996,109.6 C62.6999996,109.8 62.3999996,109.9 61.7999996,110 C61.0999996,110.1 60.4999996,110.1 59.7999996,110.1 C58.4999996,110.1 57.1999996,109.9 56.1999996,109.5 C55.0999996,109.1 54.1999996,108.5 53.4999996,107.8 C52.7999996,107.1 52.2999996,106.2 51.8999996,105.2 C51.5999996,104.2 51.3999996,103.1 51.3999996,101.9 C51.3999996,100.7 51.5999996,99.5 51.9999996,98.5 C52.2999996,97.4 52.8999996,96.5 53.5999996,95.7 C54.2999996,94.9 55.1999996,94.2 56.2999996,93.8 C57.3999996,93.3 58.5999996,93.1 59.8999996,93.1 C60.5999996,93.1 61.1999996,93.1 61.7999996,93.2 C62.3999996,93.3 62.7999996,93.4 63.2999996,93.6 L63.4999996,93.7 L63.4999996,97.4 L62.7999996,97.2 C62.2999996,97 61.9999996,97 61.4999996,96.9 C60.3999996,96.7 59.1999996,96.7 58.2999996,97.1 C57.6999996,97.3 57.2999996,97.6 56.8999996,98 C56.4999996,98.4 56.1999996,98.9 55.9999996,99.5 C55.7999996,100.1 55.6999996,100.8 55.6999996,101.6 C55.6999996,102.4 55.7999996,103.1 55.9999996,103.7 C56.1999996,104.2 56.3999996,104.7 56.7999996,105.1 C57.1999996,105.4 57.5999996,105.7 58.0999996,105.9 C59.0999996,106.3 60.2999996,106.3 61.5999996,106.1 C62.1999996,106 62.4999996,105.9 62.9999996,105.7 Z"></path>
        </g>
    </g>
</svg>