<svg xmlns="http://www.w3.org/2000/svg" xmlns:xlink="http://www.w3.org/1999/xlink" width="1153" height="211" viewBox="0 0 1153 211">
  <defs>
    <clipPath id="clip-word-programm">
      <rect width="1153" height="211"/>
    </clipPath>
  </defs>
  <g id="word-programm" clip-path="url(#clip-word-programm)">
    <path id="Programma" d="M10.17-16.272c0,11.3,7.232,17.628,16.95,17.628S44.07-4.972,44.07-16.272V-53.336H69.156c30.962,0,56.5-20.566,56.5-53.562,0-32.318-24.634-54.014-57.856-54.014h-40c-11.3,0-17.628,7.006-17.628,17.628ZM44.07-131.08H67.122c14.238,0,23.278,10.4,23.278,23.956S81.36-83.168,67.122-83.168H44.07Zm90.4,114.356c0,10.848,6.78,18.08,16.272,18.08s16.272-7.232,16.272-18.08V-66.67c0-12.882,9.944-17.176,19.662-21.7s19.436-5.2,19.436-15.82c0-11.752-7.91-17.4-15.82-17.4-10.17,0-16.724,4.52-22.826,13.56h-.452c0-10.4-7.232-13.56-15.82-13.56-8.136,0-16.724,5.424-16.724,16.272Zm125.2-106.22c-34.352,0-58.308,30.058-58.308,63.054,0,33.9,23.278,62.6,58.308,62.6s58.308-28.7,58.308-62.6C317.982-92.886,294.026-122.944,259.674-122.944Zm0,29.832c17.854,0,25.764,17.628,25.764,33.222S277.3-27.12,259.674-27.12,233.91-44.3,233.91-59.89,241.82-93.112,259.674-93.112Zm183.286-10.4c0-10.848-6.78-18.08-16.272-18.08-9.04,0-14.238,4.972-16.272,13.56-6.1-9.944-18.758-14.916-29.832-14.916-32.77,0-53.562,30.51-53.562,63.28,0,32.318,16.046,62.376,50.172,62.376,14.916,0,25.99-5.424,32.77-15.368h.452v7.684c0,16.5-11.752,25.764-27.572,25.764-18.758,0-30.284-10.17-40.68-10.17-6.328,0-13.108,8.136-13.108,14.238,0,17.854,37.968,24.408,51.3,24.408,37.064,0,62.6-19.662,62.6-58.76Zm-32.544,44.3c0,15.82-8.136,32.092-25.538,32.092-16.95,0-25.312-15.82-25.312-33.222,0-15.142,8.362-32.77,25.312-32.77C402.732-93.112,410.416-75.032,410.416-59.212ZM461.04-16.724c0,10.848,6.78,18.08,16.272,18.08s16.272-7.232,16.272-18.08V-66.67c0-12.882,9.944-17.176,19.662-21.7s19.436-5.2,19.436-15.82c0-11.752-7.91-17.4-15.82-17.4-10.17,0-16.724,4.52-22.826,13.56h-.452c0-10.4-7.232-13.56-15.82-13.56-8.136,0-16.724,5.424-16.724,16.272Zm186.9-83.62c0-8.362,0-21.244-15.594-21.244a15.453,15.453,0,0,0-15.594,13.56c-7.232-10.17-18.984-14.916-30.962-14.916C555.96-122.944,532-95.6,532-59.89c0,36.612,23.278,62.6,53.788,62.6,12.43,0,22.6-5.2,30.962-15.142,2.26,8.588,6.1,13.786,15.594,13.786,15.594,0,15.594-12.882,15.594-21.244ZM564.548-59.89c0-15.594,7.91-33.222,25.764-33.222,17.176,0,25.086,17.628,25.086,33.222s-8.136,32.77-25.086,32.77C572.684-27.12,564.548-44.3,564.548-59.89ZM666.474-16.724c0,10.848,6.78,18.08,16.272,18.08s16.272-7.232,16.272-18.08V-73.45c0-13.108,5.876-22.374,19.21-22.374,11.752,0,18.984,9.266,18.984,22.374v56.726c0,10.848,6.78,18.08,16.272,18.08s16.272-7.232,16.272-18.08V-73.45c0-13.108,7.232-22.374,19.21-22.374,11.752,0,18.984,9.266,18.984,22.374v56.726c0,10.848,6.78,18.08,16.272,18.08s16.272-7.232,16.272-18.08V-79.1c0-28.476-18.08-43.844-44.522-43.844-11.074,0-25.312,6.1-34.352,16.5-8.588-10.848-20.114-16.5-33.674-16.5a40.41,40.41,0,0,0-30.284,13.56c-1.13-7.684-6.554-12.2-14.916-12.2-9.492,0-16.272,7.232-16.272,18.08Zm192.552,0c0,10.848,6.78,18.08,16.272,18.08s16.272-7.232,16.272-18.08V-73.45c0-13.108,5.876-22.374,19.21-22.374,11.752,0,18.984,9.266,18.984,22.374v56.726c0,10.848,6.78,18.08,16.272,18.08s16.272-7.232,16.272-18.08V-73.45c0-13.108,7.232-22.374,19.21-22.374,11.752,0,18.984,9.266,18.984,22.374v56.726c0,10.848,6.78,18.08,16.272,18.08s16.272-7.232,16.272-18.08V-79.1c0-28.476-18.08-43.844-44.522-43.844-11.074,0-25.312,6.1-34.352,16.5-8.588-10.848-20.114-16.5-33.674-16.5a40.41,40.41,0,0,0-30.284,13.56c-1.13-7.684-6.554-12.2-14.916-12.2-9.492,0-16.272,7.232-16.272,18.08Zm303.744-83.62c0-8.362,0-21.244-15.594-21.244a15.453,15.453,0,0,0-15.594,13.56c-7.232-10.17-18.984-14.916-30.962-14.916-29.832,0-53.788,27.346-53.788,63.054,0,36.612,23.278,62.6,53.788,62.6,12.43,0,22.6-5.2,30.962-15.142,2.26,8.588,6.1,13.786,15.594,13.786,15.594,0,15.594-12.882,15.594-21.244ZM1079.376-59.89c0-15.594,7.91-33.222,25.764-33.222,17.176,0,25.086,17.628,25.086,33.222s-8.136,32.77-25.086,32.77C1087.512-27.12,1079.376-44.3,1079.376-59.89Z" transform="translate(-10.17 160.912)" fill="rgba(37,36,40,0.05)"/>
  </g>
</svg>
