<?xml version="1.0" standalone="no"?>
<!DOCTYPE svg PUBLIC "-//W3C//DTD SVG 20010904//EN"
 "http://www.w3.org/TR/2001/REC-SVG-20010904/DTD/svg10.dtd">
<svg version="1.0" xmlns="http://www.w3.org/2000/svg"
 width="512.000000pt" height="512.000000pt" viewBox="0 0 512.000000 512.000000"
 preserveAspectRatio="xMidYMid meet">
<metadata>
Created by potrace 1.11, written by Peter Selinger 2001-2013
</metadata>
<g transform="translate(0.000000,512.000000) scale(0.100000,-0.100000)"
fill="#000000" stroke="none">
<path d="M347 2587 c1 -1299 2 -2369 2 -2377 1 -13 253 -15 2218 -15 l2218 0
0 2368 c0 1303 -2 2372 -5 2377 -3 4 -79 -53 -170 -127 -91 -74 -207 -169
-259 -211 -52 -43 -124 -102 -161 -132 -37 -30 -85 -69 -106 -86 -22 -17 -93
-76 -160 -130 -66 -55 -140 -115 -164 -134 -24 -19 -107 -87 -184 -150 -78
-63 -274 -223 -436 -355 -162 -131 -297 -242 -300 -245 -5 -5 -243 -195 -266
-212 -6 -4 -19 0 -30 10 -25 23 -204 169 -253 207 -52 40 -615 498 -621 505
-3 3 -25 21 -50 40 -25 19 -47 37 -50 40 -3 3 -39 33 -80 65 -41 33 -77 62
-80 65 -3 4 -88 73 -190 155 -102 82 -194 157 -205 167 -31 25 -315 256 -354
286 -18 15 -39 32 -45 37 -23 22 -264 215 -267 215 -2 0 -3 -1063 -2 -2363z"/>
</g>
</svg>
