<?xml version="1.0" encoding="UTF-8"?>
<svg width="217px" height="86px" viewBox="0 0 217 86" version="1.1" xmlns="http://www.w3.org/2000/svg" xmlns:xlink="http://www.w3.org/1999/xlink">
    <!-- Generator: Sketch 48.2 (47327) - http://www.bohemiancoding.com/sketch -->
    <title>logo-howest</title>
    <desc>Created with Sketch.</desc>
    <defs></defs>
    <g id="Page-1" stroke="none" stroke-width="1" fill="none" fill-rule="evenodd">
        <g id="logo-howest" fill="#000000" fill-rule="nonzero">
            <path d="M89.91,74.46 C89.8546268,74.2950729 89.8210097,74.1236258 89.81,73.95 C89.8096234,73.7863387 89.8772442,73.6298742 89.9967006,73.5180023 C90.116157,73.4061305 90.2767149,73.3489039 90.44,73.36 C90.73,73.36 91,73.46 91.18,74.04 L92.89,79.51 L94.56,74.23 C94.74,73.66 94.86,73.36 95.35,73.36 C95.84,73.36 95.95,73.66 96.13,74.23 L97.81,79.51 L99.51,74.04 C99.69,73.46 99.96,73.36 100.25,73.36 C100.440175,73.3098506 100.642853,73.3560888 100.792462,73.4837551 C100.942071,73.6114214 101.019613,73.8043042 101,74 C100.985759,74.1740738 100.948778,74.3455323 100.89,74.51 L98.69,80.92 C98.51,81.43 98.29,81.62 97.92,81.62 C97.55,81.62 97.33,81.43 97.16,80.92 L95.44,75.5 L93.72,80.92 C93.56,81.43 93.33,81.62 92.97,81.62 C92.61,81.62 92.38,81.43 92.2,80.92 L89.91,74.46 Z" id="Shape"></path>
            <path d="M102.7,78 C102.650847,78.6495382 102.881865,79.2890832 103.334763,79.7572697 C103.787662,80.2254561 104.419188,80.4775701 105.07,80.45 C106.83,80.45 107.28,79.36 107.78,79.36 C107.922748,79.3725337 108.054337,79.4423353 108.14477,79.5534924 C108.235203,79.6646494 108.276771,79.807688 108.26,79.95 C108.26,80.6 106.62,81.6 105.05,81.6 C102.49,81.6 101.37,79.6 101.37,77.49 C101.37,75.38 102.73,73.39 104.98,73.39 C105.959662,73.441165 106.877489,73.8845243 107.526538,74.6201132 C108.175587,75.355702 108.501214,76.3215911 108.43,77.3 C108.43,77.76 108.26,78 107.69,78 L102.7,78 Z M107.1,77 C107.166765,76.3871627 106.980291,75.7736482 106.583787,75.3016192 C106.187282,74.8295901 105.615163,74.5400173 105,74.5 C103.35,74.44 102.76,75.76 102.72,76.98 L107.1,77 Z" id="Shape"></path>
            <path d="M118.72,80.46 C118.296708,81.2286496 117.45215,81.6667148 116.58,81.57 C114.41,81.57 113.16,79.57 113.16,77.46 C113.16,75.35 114.41,73.36 116.58,73.36 C117.42585,73.3534396 118.222831,73.7556544 118.72,74.44 L118.72,70.53 C118.688419,70.2729472 118.807814,70.0207131 119.026641,69.8821909 C119.245468,69.7436688 119.524532,69.7436688 119.743359,69.8821909 C119.962186,70.0207131 120.081581,70.2729472 120.05,70.53 L120.05,80.86 C120.081581,81.1170528 119.962186,81.3692869 119.743359,81.5078091 C119.524532,81.6463312 119.245468,81.6463312 119.026641,81.5078091 C118.807814,81.3692869 118.688419,81.1170528 118.72,80.86 L118.72,80.46 Z M116.66,74.46 C115.03,74.46 114.45,76.06 114.45,77.46 C114.45,78.86 115.03,80.46 116.66,80.46 C118.29,80.46 118.86,78.86 118.86,77.46 C118.86,76.06 118.29,74.5 116.66,74.5 L116.66,74.46 Z" id="Shape"></path>
            <path d="M122.71,78 C122.660847,78.6495382 122.891865,79.2890832 123.344763,79.7572697 C123.797662,80.2254561 124.429188,80.4775701 125.08,80.45 C126.84,80.45 127.3,79.36 127.79,79.36 C127.934544,79.3699639 128.068707,79.438668 128.161275,79.5501277 C128.253843,79.6615874 128.296745,79.8060843 128.28,79.95 C128.28,80.6 126.63,81.6 125.06,81.6 C122.5,81.6 121.38,79.6 121.38,77.49 C121.38,75.38 122.74,73.39 124.99,73.39 C125.969662,73.441165 126.887489,73.8845243 127.536538,74.6201132 C128.185587,75.355702 128.511214,76.3215911 128.44,77.3 C128.44,77.76 128.28,78 127.7,78 L122.71,78 Z M127.11,77 C127.17677,76.3855345 126.988964,75.770534 126.590312,75.2981969 C126.191659,74.8258598 125.61695,74.5374061 125,74.5 C123.35,74.44 122.76,75.76 122.72,76.98 L127.11,77 Z" id="Shape"></path>
            <path d="M129.05,74.52 C128.971875,74.3496571 128.924479,74.1668439 128.91,73.98 C128.901655,73.8166399 128.961504,73.657147 129.075257,73.5396031 C129.189009,73.4220591 129.346454,73.3570146 129.51,73.36 C129.839103,73.3271523 130.140399,73.546668 130.21,73.87 L132,79.42 L133.83,73.87 C133.899601,73.546668 134.200897,73.3271523 134.53,73.36 C134.693546,73.3570146 134.850991,73.4220591 134.964743,73.5396031 C135.078496,73.657147 135.138345,73.8166399 135.13,73.98 C135.115521,74.1668439 135.068125,74.3496571 134.99,74.52 L132.74,81 C132.61,81.39 132.47,81.58 132.05,81.58 C131.63,81.58 131.49,81.39 131.36,81 L129.05,74.52 Z" id="Shape"></path>
            <path d="M137,78 C136.951099,78.6477319 137.180802,79.2855695 137.631448,79.7534009 C138.082094,80.2212324 138.710892,80.4746354 139.36,80.45 C141.13,80.45 141.58,79.36 142.08,79.36 C142.222748,79.3725337 142.354337,79.4423353 142.44477,79.5534924 C142.535203,79.6646494 142.576771,79.807688 142.56,79.95 C142.56,80.6 140.92,81.6 139.35,81.6 C136.78,81.6 135.67,79.6 135.67,77.49 C135.67,75.38 137.03,73.39 139.27,73.39 C140.251438,73.4385684 141.171837,73.8808059 141.82303,74.6166917 C142.474224,75.3525775 142.801197,76.3199433 142.73,77.3 C142.73,77.76 142.56,78 141.99,78 L137,78 Z M141.4,77 C141.460968,76.3855038 141.267836,75.7728222 140.865497,75.3043714 C140.463158,74.8359205 139.886657,74.5525036 139.27,74.52 C137.62,74.44 137,75.76 137,77 L141.4,77 Z" id="Shape"></path>
            <path d="M145.32,80.86 C145.337365,81.046063 145.27381,81.230599 145.145556,81.3665102 C145.017301,81.5024213 144.836756,81.5765584 144.65,81.57 C144.463959,81.5769491 144.284112,81.5025444 144.157359,81.3661879 C144.030605,81.2298314 143.969508,81.0450398 143.99,80.86 L143.99,70.53 C143.969133,70.3458054 144.030446,70.1617689 144.157614,70.0268935 C144.284783,69.8920182 144.464897,69.8199945 144.65,69.83 C144.835815,69.8204356 145.016593,69.8922079 145.145246,70.0266214 C145.273899,70.161035 145.337689,70.3447821 145.32,70.53 L145.32,80.86 Z" id="Shape"></path>
            <path d="M150.25,73.36 C152.51,73.36 153.78,75.36 153.78,77.46 C153.78,79.56 152.51,81.57 150.25,81.57 C147.99,81.57 146.72,79.57 146.72,77.46 C146.72,75.35 148,73.36 150.25,73.36 Z M150.25,80.42 C151.88,80.42 152.45,78.82 152.45,77.42 C152.45,76.02 151.88,74.42 150.25,74.42 C148.62,74.42 148.05,76.02 148.05,77.42 C148.05,78.82 148.62,80.42 150.25,80.42 Z" id="Shape"></path>
            <path d="M155.25,74.07 C155.25,73.7054921 155.545492,73.41 155.91,73.41 C156.274508,73.41 156.57,73.7054921 156.57,74.07 L156.57,74.46 C157.001464,73.6956011 157.847651,73.2626686 158.72,73.36 C160.89,73.36 162.14,75.36 162.14,77.46 C162.14,79.56 160.89,81.57 158.72,81.57 C157.869214,81.575818 157.068171,81.169708 156.57,80.48 L156.57,84 C156.57,84.3645079 156.274508,84.66 155.91,84.66 C155.545492,84.66 155.25,84.3645079 155.25,84 L155.25,74.07 Z M158.64,80.42 C160.27,80.42 160.84,78.82 160.84,77.42 C160.84,76.02 160.27,74.42 158.64,74.42 C157.01,74.42 156.44,76.02 156.44,77.42 C156.44,78.82 157,80.42 158.64,80.42 Z" id="Shape"></path>
            <path d="M167.41,74.07 C167.378419,73.8129472 167.497814,73.5607131 167.716641,73.4221909 C167.935468,73.2836688 168.214532,73.2836688 168.433359,73.4221909 C168.652186,73.5607131 168.771581,73.8129472 168.74,74.07 L168.74,74.46 C169.166123,73.6952127 170.010081,73.2614023 170.88,73.36 C173.05,73.36 174.31,75.36 174.31,77.46 C174.31,79.56 173.05,81.57 170.88,81.57 C170.031543,81.5776194 169.232743,81.1707543 168.74,80.48 L168.74,84 C168.771581,84.2570528 168.652186,84.5092869 168.433359,84.6478091 C168.214532,84.7863312 167.935468,84.7863312 167.716641,84.6478091 C167.497814,84.5092869 167.378419,84.2570528 167.41,84 L167.41,74.07 Z M170.8,80.42 C172.43,80.42 173.01,78.82 173.01,77.42 C173.01,76.02 172.43,74.42 170.8,74.42 C169.17,74.42 168.6,76.02 168.6,77.42 C168.6,78.82 169.18,80.42 170.8,80.42 Z" id="Shape"></path>
            <path d="M176.59,78 C176.548757,78.6518286 176.789035,79.2900464 177.249912,79.7528357 C177.710789,80.215625 178.348006,80.4585435 179,80.42 C180.77,80.42 181.22,79.33 181.72,79.33 C181.862748,79.3425337 181.994337,79.4123353 182.08477,79.5234924 C182.175203,79.6346494 182.216771,79.777688 182.2,79.92 C182.2,80.57 180.56,81.57 178.99,81.57 C176.42,81.57 175.31,79.57 175.31,77.46 C175.31,75.35 176.67,73.36 178.91,73.36 C179.891438,73.4085684 180.811837,73.8508059 181.46303,74.5866917 C182.114224,75.3225775 182.441197,76.2899433 182.37,77.27 C182.37,77.73 182.2,77.97 181.63,77.97 L176.59,78 Z M180.99,77 C181.050968,76.3855038 180.857836,75.7728222 180.455497,75.3043714 C180.053158,74.8359205 179.476657,74.5525036 178.86,74.52 C177.22,74.46 176.63,75.78 176.59,77 L180.99,77 Z" id="Shape"></path>
            <path d="M186.77,73.36 C189.04,73.36 190.3,75.36 190.3,77.46 C190.3,79.56 189.04,81.57 186.77,81.57 C184.5,81.57 183.24,79.57 183.24,77.46 C183.24,75.35 184.51,73.36 186.77,73.36 Z M186.77,80.42 C188.4,80.42 188.98,78.82 188.98,77.42 C188.98,76.02 188.4,74.42 186.77,74.42 C185.14,74.42 184.57,76.02 184.57,77.42 C184.57,78.82 185.14,80.42 186.77,80.42 Z" id="Shape"></path>
            <path d="M191.77,74.07 C191.745915,73.8841941 191.805781,73.6973086 191.933345,73.5600809 C192.060908,73.4228533 192.242933,73.3495236 192.43,73.36 C192.617744,73.3500299 192.800375,73.423115 192.92941,73.5598529 C193.058444,73.6965909 193.120828,73.8831489 193.1,74.07 L193.1,74.46 C193.526123,73.6952127 194.370081,73.2614023 195.24,73.36 C197.41,73.36 198.66,75.36 198.66,77.46 C198.66,79.56 197.41,81.57 195.24,81.57 C194.391543,81.5776194 193.592743,81.1707543 193.1,80.48 L193.1,84 C193.117689,84.1852179 193.053899,84.368965 192.925246,84.5033786 C192.796593,84.6377921 192.615815,84.7095644 192.43,84.7 C192.244897,84.7100055 192.064783,84.6379818 191.937614,84.5031065 C191.810446,84.3682311 191.749133,84.1841946 191.77,84 L191.77,74.07 Z M195.16,80.42 C196.79,80.42 197.37,78.82 197.37,77.42 C197.37,76.02 196.79,74.42 195.16,74.42 C193.53,74.42 192.96,76.02 192.96,77.42 C192.96,78.82 193.53,80.42 195.16,80.42 Z" id="Shape"></path>
            <path d="M201.43,80.86 C201.461581,81.1170528 201.342186,81.3692869 201.123359,81.5078091 C200.904532,81.6463312 200.625468,81.6463312 200.406641,81.5078091 C200.187814,81.3692869 200.068419,81.1170528 200.1,80.86 L200.1,70.53 C200.068419,70.2729472 200.187814,70.0207131 200.406641,69.8821909 C200.625468,69.7436688 200.904532,69.7436688 201.123359,69.8821909 C201.342186,70.0207131 201.461581,70.2729472 201.43,70.53 L201.43,80.86 Z" id="Shape"></path>
            <path d="M204,78 C203.954106,78.6487191 204.186202,79.2863555 204.638367,79.7537838 C205.090532,80.2212122 205.720115,80.4743407 206.37,80.45 C208.14,80.45 208.59,79.36 209.09,79.36 C209.232748,79.3725337 209.364337,79.4423353 209.45477,79.5534924 C209.545203,79.6646494 209.586771,79.807688 209.57,79.95 C209.57,80.6 207.93,81.6 206.36,81.6 C203.79,81.6 202.67,79.6 202.67,77.49 C202.67,75.38 204.03,73.39 206.28,73.39 C207.261438,73.4385684 208.181837,73.8808059 208.83303,74.6166917 C209.484224,75.3525775 209.811197,76.3199433 209.74,77.3 C209.74,77.76 209.57,78 209,78 L204,78 Z M208.41,77 C208.468055,76.3861215 208.27388,75.7750394 207.872125,75.3072681 C207.470369,74.8394968 206.895607,74.5552903 206.28,74.52 C204.64,74.46 204.05,75.78 204,77 L208.41,77 Z" id="Shape"></path>
            <path d="M0.57,15 C0.57,11.82 2.57,9.7 5.34,9.7 C8.11,9.7 10.12,11.82 10.12,15 L10.12,28 L10.25,28 C12.25,25.54 15.96,24.68 18.95,24.68 C26.44,24.67 32,29.45 32,37.54 L32,55.85 C32,59.04 30,61.16 27.23,61.16 C24.46,61.16 22.46,59 22.46,55.85 L22.46,39.2 C22.46,34.76 19.68,32.63 16.22,32.63 C12.31,32.63 10.12,35.49 10.12,39.2 L10.12,55.85 C10.12,59.04 8.12,61.16 5.34,61.16 C2.56,61.16 0.57,59 0.57,55.85 L0.57,15 Z" id="Shape"></path>
            <path d="M71.63,43.18 C71.63,53.13 64.79,61.56 54.51,61.56 C44.23,61.56 37.39,53.13 37.39,43.18 C37.39,33.5 44.39,24.67 54.51,24.67 C64.63,24.67 71.63,33.5 71.63,43.18 Z M47,43.18 C47,47.76 49.38,52.8 54.56,52.8 C59.74,52.8 62.12,47.8 62.12,43.18 C62.12,38.56 59.8,33.43 54.56,33.43 C49.32,33.43 47,38.6 47,43.18 Z" id="Shape"></path>
            <path d="M75.68,33.43 C75.083956,31.997198 74.7454319,30.4704543 74.68,28.92 C74.68,26.79 76.68,25.07 79.46,25.07 C81.696772,25.0426804 83.6216079,26.6452971 84,28.85 L89.51,47.1 L89.64,47.1 L95.21,29.25 C95.94,26.66 97.27,25.07 100.06,25.07 C102.85,25.07 104.17,26.66 104.9,29.25 L110.47,47.1 L110.6,47.1 L116.11,28.85 C116.486588,26.6565931 118.394535,25.0574713 120.62,25.07 C121.892532,24.964188 123.148645,25.4138831 124.064884,26.3032871 C124.981124,27.1926912 125.467949,28.4348854 125.4,29.71 C125.261409,30.9446394 124.948286,32.1533596 124.47,33.3 L116.31,56.3 C115.31,59.08 113.66,61.14 110.54,61.14 C107.62,61.14 105.89,59.48 105.03,56.7 L100.12,41.3 L100,41.3 L95.09,56.7 C94.23,59.48 92.5,61.14 89.58,61.14 C86.46,61.14 84.81,59.08 83.81,56.3 L75.68,33.43 Z" id="Shape"></path>
            <path d="M137.58,46.3 C138.24,51.01 142.16,53.2 146.58,53.2 C151.49,53.2 154.88,49.35 157.4,49.35 C159.566551,49.5184366 161.255035,51.2976069 161.31,53.47 C161.31,57.58 152.82,61.56 145.72,61.56 C134.97,61.56 127.81,53.73 127.81,43.18 C127.81,33.5 134.81,24.67 144.93,24.67 C155.28,24.67 162.11,34.09 162.11,42.05 C162.11,44.91 160.85,46.3 157.93,46.3 L137.58,46.3 Z M152.58,39.93 C152.05,35.75 149.4,32.63 144.96,32.63 C140.71,32.63 137.86,35.88 137.39,39.93 L152.58,39.93 Z" id="Shape"></path>
            <path d="M186.94,35.82 C185.15,35.82 181.5,33.03 178.39,33.03 C176.66,33.03 175.13,33.83 175.13,35.68 C175.13,40.13 191.72,39.47 191.72,50.35 C191.72,56.72 186.35,61.56 178.12,61.56 C172.75,61.56 164.78,58.56 164.78,54.19 C164.78,52.74 166.24,49.95 168.9,49.95 C172.61,49.95 174.27,53.2 178.78,53.2 C181.7,53.2 182.57,52.27 182.57,50.48 C182.57,46.1 165.98,46.76 165.98,35.82 C165.98,29.18 171.35,24.67 178.92,24.67 C183.63,24.67 190.86,26.86 190.86,31.57 C190.928192,33.8175852 189.185763,35.7066976 186.94,35.82 Z" id="Shape"></path>
            <path d="M200.08,33.83 L198,33.83 C196.864867,33.9252355 195.745428,33.5155324 194.939948,32.710052 C194.134468,31.9045716 193.724765,30.7851333 193.82,29.65 C193.792273,28.5331257 194.223755,27.4537403 195.013748,26.6637477 C195.80374,25.873755 196.883126,25.4422731 198,25.47 L200.12,25.47 L200.12,19.76 C200.12,16.58 202.12,14.45 204.9,14.45 C207.68,14.45 209.68,16.58 209.68,19.76 L209.68,25.47 L212.4,25.47 C214.85,25.47 216.97,26.6 216.97,29.65 C216.97,32.7 214.85,33.83 212.4,33.83 L209.68,33.83 L209.68,55.83 C209.68,59.02 207.68,61.14 204.9,61.14 C202.12,61.14 200.12,59.02 200.12,55.83 L200.08,33.83 Z" id="Shape"></path>
            <path d="M99.51,20.68 L105.51,1.29 C105.593957,1.02026448 105.527635,0.726227833 105.336016,0.51865082 C105.144397,0.311073807 104.856592,0.221492313 104.581016,0.28365082 C104.305439,0.345809327 104.083957,0.55026448 104,0.82 L97.84,20.68 L99.51,20.68 Z" id="Shape"></path>
            <path d="M84,65.55 L78,84.68 C77.8692294,85.09958 78.1014126,85.5460862 78.52,85.68 C78.5997099,85.6896348 78.6802901,85.6896348 78.76,85.68 C79.1082103,85.6786275 79.4155388,85.4521749 79.52,85.12 L85.59,65.52 L84,65.55 Z" id="Shape"></path>
        </g>
    </g>
</svg>