<?xml version="1.0" encoding="utf-8"?>
<!-- Generator: Adobe Illustrator 24.0.3, SVG Export Plug-In . SVG Version: 6.00 Build 0)  -->
<svg version="1.1" id="Laag_2" xmlns="http://www.w3.org/2000/svg" xmlns:xlink="http://www.w3.org/1999/xlink" x="0px" y="0px"
	 viewBox="0 0 150 134.3" style="enable-background:new 0 0 150 134.3;" xml:space="preserve">
<style type="text/css">
	.st0{fill:#44C8F5;}
</style>
<g>
	<path class="st0" d="M83.9,54.2l-11,6.1l-11-6.1v12.7l6.6,3.8c2.7,1.6,6.1,1.6,8.8,0l6.6-3.8V54.2z"/>
	<path class="st0" d="M100.8,14.7L77.3,1.2c-2.7-1.6-6.1-1.6-8.8,0L44.9,14.7c-2.7,1.6-4.4,4.5-4.4,7.7v27.1c0,3.2,1.7,6.1,4.4,7.7
		l4.1,2.4V23.9c0-1.5,1.6-2.4,2.9-1.7l21,11.8l20.9-11.8c1.3-0.7,2.9,0.2,2.9,1.7v35.6l4.1-2.4c2.7-1.6,4.4-4.5,4.4-7.7V22.4
		C105.2,19.2,103.5,16.3,100.8,14.7z"/>
	<path class="st0" d="M0.1,75.8c0-2.2,1.4-3.7,3.3-3.7s3.3,1.5,3.3,3.7v9h0.1c1.4-1.7,4-2.3,6-2.3c5.2,0,9.1,3.3,9.1,9v12.7
		c0,2.2-1.4,3.7-3.3,3.7c-1.9,0-3.3-1.5-3.3-3.7V92.6c0-3.1-1.9-4.6-4.3-4.6c-2.7,0-4.2,2-4.2,4.6v11.6c0,2.2-1.4,3.7-3.3,3.7
		s-3.3-1.5-3.3-3.7V75.8z"/>
	<path class="st0" d="M49.6,95.4c0,6.9-4.8,12.8-11.9,12.8c-7.2,0-11.9-5.9-11.9-12.8c0-6.7,4.9-12.9,11.9-12.9
		C44.7,82.5,49.6,88.7,49.6,95.4z M32.4,95.4c0,3.2,1.7,6.7,5.3,6.7s5.3-3.5,5.3-6.7c0-3.2-1.6-6.8-5.3-6.8S32.4,92.2,32.4,95.4z"/>
	<path class="st0" d="M51.7,88.6c-0.5-1.3-0.7-2.2-0.7-3.1c0-1.5,1.4-2.7,3.3-2.7c1.6,0,2.8,1.1,3.1,2.6l3.8,12.7h0.1l3.9-12.4
		c0.5-1.8,1.4-2.9,3.4-2.9c1.9,0,2.9,1.1,3.4,2.9l3.9,12.4H76l3.8-12.7c0.4-1.6,1.5-2.6,3.1-2.6c1.9,0,3.3,1.2,3.3,3.2
		c0,0.7-0.3,1.5-0.6,2.5l-5.7,16c-0.7,1.9-1.8,3.4-4,3.4c-2,0-3.2-1.2-3.8-3.1l-3.4-10.7h-0.1l-3.4,10.7c-0.6,1.9-1.8,3.1-3.8,3.1
		c-2.2,0-3.3-1.4-4-3.4L51.7,88.6z"/>
	<path class="st0" d="M94.8,97.6c0.5,3.3,3.2,4.8,6.3,4.8c3.4,0,5.8-2.7,7.5-2.7c1.4,0,2.7,1.4,2.7,2.9c0,2.9-5.9,5.6-10.9,5.6
		c-7.5,0-12.5-5.4-12.5-12.8c0-6.7,4.9-12.9,11.9-12.9c7.2,0,12,6.6,12,12.1c0,2-0.9,3-2.9,3H94.8z M105.2,93.1
		c-0.4-2.9-2.2-5.1-5.3-5.1c-3,0-4.9,2.3-5.3,5.1H105.2z"/>
	<path class="st0" d="M129.1,90.3c-1.2,0-3.8-1.9-6-1.9c-1.2,0-2.3,0.6-2.3,1.8c0,3.1,11.5,2.6,11.5,10.2c0,4.4-3.7,7.8-9.5,7.8
		c-3.7,0-9.3-2.1-9.3-5.1c0-1,1-3,2.9-3c2.6,0,3.7,2.3,6.9,2.3c2,0,2.6-0.6,2.6-1.9c0-3-11.5-2.6-11.5-10.2c0-4.6,3.7-7.8,9-7.8
		c3.3,0,8.3,1.5,8.3,4.8C131.9,88.8,130.7,90.3,129.1,90.3z"/>
	<path class="st0" d="M138.3,88.9h-1.5c-1.8,0-2.9-1.1-2.9-2.9c0-1.7,1.2-2.9,2.9-2.9h1.5v-4c0-2.2,1.4-3.7,3.3-3.7
		c1.9,0,3.3,1.5,3.3,3.7v4h1.9c1.7,0,3.2,0.8,3.2,2.9c0,2.1-1.5,2.9-3.2,2.9h-1.9v15.3c0,2.2-1.4,3.7-3.3,3.7
		c-1.9,0-3.3-1.5-3.3-3.7V88.9z"/>
	<path class="st0" d="M4.5,124.8c1,0,2.8,0.3,2.8,1.5c0,0.5-0.3,0.9-0.8,0.9c-0.5,0-0.9-0.5-2-0.5c-1.6,0-2.5,1.4-2.5,3
		c0,1.6,0.8,2.9,2.5,2.9c1.1,0,1.5-0.5,2.1-0.5c0.6,0,0.9,0.6,0.9,0.9c0,1.3-2,1.5-2.9,1.5c-2.6,0-4.5-2.1-4.5-4.8
		C0,126.9,1.8,124.8,4.5,124.8z"/>
	<path class="st0" d="M8.6,126c0-0.6,0.4-1,1-1h2.3c2,0,3.2,0.9,3.2,2.9c0,1.4-1.1,2.3-2.4,2.5l2.2,2.4c0.2,0.2,0.3,0.4,0.3,0.6
		c0,0.5-0.4,1-1,1c-0.2,0-0.5-0.1-0.8-0.3l-2.9-3.5h0v2.8c0,0.7-0.4,1-1,1c-0.6,0-1-0.4-1-1V126z M10.5,129.1h1.3
		c0.7,0,1.2-0.4,1.2-1.2c0-0.7-0.5-1.1-1.2-1.1h-1.3V129.1z"/>
	<path class="st0" d="M16.2,126.1c0-0.7,0.3-1.1,1-1.1h3.2c0.6,0,0.9,0.4,0.9,0.9c0,0.4-0.3,0.9-0.9,0.9h-2.3v1.9h2.1
		c0.6,0,1,0.4,1,0.9c0,0.4-0.3,0.9-1,0.9h-2.1v2h2.4c0.6,0,0.9,0.4,0.9,0.9c0,0.4-0.3,0.9-0.9,0.9h-3.4c-0.6,0-1-0.4-1-1V126.1z"/>
	<path class="st0" d="M24.6,125.9c0.2-0.6,0.7-1.1,1.4-1.1c0.7,0,1.2,0.5,1.4,1.1L30,133c0.1,0.2,0.1,0.4,0.1,0.5
		c0,0.5-0.4,0.9-0.9,0.9c-0.5,0-0.8-0.3-1-0.7l-0.4-1.2h-3.6l-0.4,1.2c-0.1,0.4-0.4,0.7-0.9,0.7c-0.5,0-1-0.4-1-0.9
		c0-0.2,0.1-0.4,0.1-0.4L24.6,125.9z M24.8,130.6h2.5l-1.2-3.8h0L24.8,130.6z"/>
	<path class="st0" d="M31.3,126.8h-1.4c-0.6,0-0.9-0.5-0.9-0.9c0-0.5,0.3-0.9,0.9-0.9h4.8c0.6,0,0.9,0.4,0.9,0.9
		c0,0.4-0.3,0.9-0.9,0.9h-1.4v6.5c0,0.7-0.4,1-1,1c-0.6,0-1-0.4-1-1V126.8z"/>
	<path class="st0" d="M36.3,125.9c0-0.7,0.4-1,1-1c0.6,0,1,0.4,1,1v7.4c0,0.7-0.4,1-1,1c-0.6,0-1-0.4-1-1V125.9z"/>
	<path class="st0" d="M39.3,126.3c-0.1-0.2-0.1-0.3-0.1-0.5c0-0.5,0.5-0.9,1-0.9c0.4,0,0.7,0.3,0.9,0.6l2,5.4l2-5.4
		c0.2-0.4,0.4-0.6,0.9-0.6c0.5,0,1,0.4,1,0.9c0,0.2,0,0.3-0.1,0.5l-2.9,7.3c-0.2,0.4-0.4,0.8-1,0.8c-0.6,0-0.8-0.3-1-0.8L39.3,126.3
		z"/>
	<path class="st0" d="M47.6,126.1c0-0.7,0.3-1.1,1-1.1h3.2c0.6,0,0.9,0.4,0.9,0.9c0,0.4-0.3,0.9-0.9,0.9h-2.3v1.9h2.1
		c0.6,0,1,0.4,1,0.9c0,0.4-0.3,0.9-1,0.9h-2.1v2h2.4c0.6,0,0.9,0.4,0.9,0.9c0,0.4-0.3,0.9-0.9,0.9h-3.4c-0.6,0-1-0.4-1-1V126.1z"/>
	<path class="st0" d="M59.6,126.8h-1.4c-0.6,0-0.9-0.5-0.9-0.9c0-0.5,0.3-0.9,0.9-0.9H63c0.6,0,0.9,0.4,0.9,0.9
		c0,0.4-0.3,0.9-0.9,0.9h-1.4v6.5c0,0.7-0.4,1-1,1c-0.6,0-1-0.4-1-1V126.8z"/>
	<path class="st0" d="M64.4,126.1c0-0.7,0.3-1.1,1-1.1h3.2c0.6,0,0.9,0.4,0.9,0.9c0,0.4-0.3,0.9-0.9,0.9h-2.3v1.9h2.1
		c0.6,0,1,0.4,1,0.9c0,0.4-0.3,0.9-1,0.9h-2.1v2h2.4c0.6,0,0.9,0.4,0.9,0.9c0,0.4-0.3,0.9-0.9,0.9h-3.4c-0.6,0-1-0.4-1-1V126.1z"/>
	<path class="st0" d="M74.6,124.8c1,0,2.8,0.3,2.8,1.5c0,0.5-0.3,0.9-0.8,0.9c-0.5,0-0.9-0.5-2-0.5c-1.6,0-2.4,1.4-2.4,3
		c0,1.6,0.8,2.9,2.4,2.9c1.1,0,1.5-0.5,2.1-0.5c0.6,0,0.9,0.6,0.9,0.9c0,1.3-2,1.5-2.9,1.5c-2.6,0-4.5-2.1-4.5-4.8
		C70.1,126.9,72,124.8,74.6,124.8z"/>
	<path class="st0" d="M78.5,125.9c0-0.7,0.4-1,1-1c0.6,0,1,0.4,1,1v2.8h4.1v-2.8c0-0.7,0.4-1,1-1c0.6,0,1,0.4,1,1v7.4
		c0,0.7-0.4,1-1,1c-0.6,0-1-0.4-1-1v-2.8h-4.1v2.8c0,0.7-0.4,1-1,1c-0.6,0-1-0.4-1-1V125.9z"/>
	<path class="st0" d="M87.9,125.9c0-0.7,0.4-1,1-1c0.2,0,0.7,0.2,0.8,0.4l4.1,5.5h0v-4.9c0-0.7,0.4-1,1-1c0.6,0,1,0.4,1,1v7.4
		c0,0.7-0.4,1-1,1c-0.2,0-0.6-0.2-0.8-0.4l-4.1-5.4h0v4.9c0,0.7-0.4,1-1,1s-1-0.4-1-1V125.9z"/>
	<path class="st0" d="M96.8,129.6c0-2.7,1.8-4.8,4.5-4.8c2.6,0,4.5,2.2,4.5,4.8c0,2.7-1.8,4.8-4.5,4.8
		C98.6,134.4,96.8,132.3,96.8,129.6z M103.7,129.6c0-1.6-0.8-3-2.5-3c-1.6,0-2.4,1.4-2.4,3c0,1.6,0.8,3,2.4,3
		C102.9,132.6,103.7,131.2,103.7,129.6z"/>
	<path class="st0" d="M106.8,125.9c0-0.7,0.4-1,1-1c0.6,0,1,0.4,1,1v6.5h2.3c0.7,0,1,0.5,0.9,0.9c0,0.4-0.4,0.9-0.9,0.9h-3.3
		c-0.6,0-1-0.4-1-1.1V125.9z"/>
	<path class="st0" d="M111.4,129.6c0-2.7,1.8-4.8,4.5-4.8c2.6,0,4.5,2.2,4.5,4.8c0,2.7-1.8,4.8-4.5,4.8
		C113.3,134.4,111.4,132.3,111.4,129.6z M118.4,129.6c0-1.6-0.8-3-2.5-3c-1.6,0-2.4,1.4-2.4,3c0,1.6,0.8,3,2.4,3
		C117.6,132.6,118.4,131.2,118.4,129.6z"/>
	<path class="st0" d="M128.7,128.8c0.8,0,1.1,0.4,1.1,1.3c0,2.5-1.6,4.4-4.2,4.4c-2.6,0-4.5-2.1-4.5-4.8c0-2.7,1.8-4.8,4.5-4.8
		c2,0,3.6,0.9,3.6,1.8c0,0.6-0.4,0.9-0.8,0.9c-0.9,0-1.1-1-2.8-1c-1.6,0-2.4,1.4-2.4,3c0,1.6,0.8,3,2.4,3c1,0,2.2-0.6,2.2-2.1h-1.3
		c-0.5,0-0.9-0.4-0.9-0.9c0-0.5,0.4-0.9,0.9-0.9H128.7z"/>
	<path class="st0" d="M130.8,125.9c0-0.7,0.4-1,1-1c0.6,0,1,0.4,1,1v7.4c0,0.7-0.4,1-1,1c-0.6,0-1-0.4-1-1V125.9z"/>
	<path class="st0" d="M134.2,126.1c0-0.7,0.3-1.1,1-1.1h3.2c0.6,0,0.9,0.4,0.9,0.9c0,0.4-0.3,0.9-0.9,0.9h-2.3v1.9h2.1
		c0.6,0,1,0.4,1,0.9c0,0.4-0.3,0.9-1,0.9h-2.1v2h2.4c0.6,0,0.9,0.4,0.9,0.9c0,0.4-0.3,0.9-0.9,0.9h-3.4c-0.6,0-1-0.4-1-1V126.1z"/>
	<path class="st0" d="M145.9,126.1c0,0.5-0.3,1-0.9,1c-0.5,0-1-0.4-1.7-0.4c-0.6,0-1.1,0.3-1.1,0.8c0,1.3,4.4,0.5,4.4,3.8
		c0,1.9-1.5,3-3.3,3c-1,0-3.2-0.2-3.2-1.5c0-0.5,0.3-0.9,0.9-0.9c0.6,0,1.3,0.5,2.2,0.5c0.9,0,1.3-0.5,1.3-1.1
		c0-1.5-4.4-0.6-4.4-3.6c0-1.8,1.5-3,3.2-3C144.1,124.8,145.9,125.1,145.9,126.1z"/>
	<g>
		<path class="st0" d="M32.5,113.7c0.1-0.5,0.6-1,1.3-1c0.7,0,1.2,0.5,1.3,0.9l1.5,5.2h0l1.5-5.2c0.1-0.5,0.7-0.9,1.3-0.9
			c0.7,0,1.2,0.5,1.3,1L42,121c0,0.1,0,0.2,0,0.2c0,0.6-0.4,0.9-0.9,0.9c-0.7,0-0.9-0.3-1-0.9l-0.8-5.3h0l-1.6,5.5
			c-0.1,0.3-0.3,0.8-1,0.8c-0.7,0-1-0.4-1-0.8L34,116h0l-0.8,5.3c-0.1,0.6-0.4,0.9-1,0.9c-0.5,0-0.9-0.4-0.9-0.9c0-0.1,0-0.1,0-0.2
			L32.5,113.7z"/>
		<path class="st0" d="M42.7,113.8c0-0.7,0.4-1,1-1c0.6,0,1,0.4,1,1v4.5c0,1.2,0.8,2.2,2,2.2c1.2,0,2-1,2-2.2v-4.5c0-0.7,0.4-1,1-1
			c0.6,0,1,0.4,1,1v4.7c0,2.2-1.8,3.8-3.9,3.8c-2.2,0-4-1.6-4-3.8V113.8z"/>
		<path class="st0" d="M51.9,113.8c0-0.7,0.4-1,1-1c0.6,0,1,0.4,1,1v6.5h2.3c0.7,0,1,0.5,0.9,0.9c0,0.4-0.4,0.9-0.9,0.9h-3.3
			c-0.6,0-1-0.4-1-1.1V113.8z"/>
		<path class="st0" d="M57.7,114.6h-1.4c-0.6,0-0.9-0.5-0.9-0.9c0-0.5,0.3-0.9,0.9-0.9h4.8c0.6,0,0.9,0.4,0.9,0.9
			c0,0.4-0.3,0.9-0.9,0.9h-1.4v6.5c0,0.7-0.4,1-1,1s-1-0.4-1-1V114.6z"/>
		<path class="st0" d="M62.5,113.8c0-0.7,0.4-1,1-1s1,0.4,1,1v7.4c0,0.7-0.4,1-1,1s-1-0.4-1-1V113.8z"/>
		<path class="st0" d="M66.7,113.7c0.1-0.5,0.6-1,1.3-1c0.7,0,1.2,0.5,1.3,0.9l1.5,5.2h0l1.5-5.2c0.1-0.5,0.7-0.9,1.3-0.9
			c0.7,0,1.2,0.5,1.3,1l1.2,7.3c0,0.1,0,0.2,0,0.2c0,0.6-0.4,0.9-0.9,0.9c-0.7,0-0.9-0.3-1-0.9l-0.8-5.3h0l-1.6,5.5
			c-0.1,0.3-0.3,0.8-1,0.8c-0.7,0-1-0.4-1-0.8l-1.6-5.5h0l-0.8,5.3c-0.1,0.6-0.4,0.9-1,0.9c-0.5,0-0.9-0.4-0.9-0.9
			c0-0.1,0-0.1,0-0.2L66.7,113.7z"/>
		<path class="st0" d="M77.2,113.9c0-0.7,0.3-1.1,1-1.1h3.2c0.6,0,0.9,0.4,0.9,0.9c0,0.4-0.3,0.9-0.9,0.9h-2.3v1.9h2.1
			c0.6,0,1,0.4,1,0.9c0,0.4-0.3,0.9-1,0.9h-2.1v2h2.4c0.6,0,0.9,0.4,0.9,0.9c0,0.4-0.3,0.9-0.9,0.9h-3.4c-0.6,0-1-0.4-1-1V113.9z"/>
		<path class="st0" d="M83.4,113.8c0-0.6,0.4-1,1-1h2.2c2.9,0,4.6,1.9,4.6,4.8c0,2.7-1.8,4.5-4.5,4.5h-2.3c-0.4,0-1-0.2-1-1V113.8z
			 M85.4,120.3h1.3c1.7,0,2.5-1.2,2.5-2.8c0-1.7-0.8-2.9-2.6-2.9h-1.2V120.3z"/>
		<path class="st0" d="M92.2,113.8c0-0.7,0.4-1,1-1s1,0.4,1,1v7.4c0,0.7-0.4,1-1,1s-1-0.4-1-1V113.8z"/>
		<path class="st0" d="M97.6,113.7c0.2-0.6,0.7-1.1,1.4-1.1c0.7,0,1.2,0.5,1.4,1.1l2.6,7.1c0.1,0.2,0.1,0.4,0.1,0.5
			c0,0.5-0.4,0.9-0.9,0.9c-0.5,0-0.8-0.3-1-0.7l-0.4-1.2h-3.6l-0.4,1.2c-0.1,0.4-0.4,0.7-0.9,0.7c-0.5,0-1-0.4-1-0.9
			c0-0.2,0.1-0.4,0.1-0.4L97.6,113.7z M97.8,118.5h2.5l-1.2-3.8h0L97.8,118.5z"/>
	</g>
	<g>
		<path class="st0" d="M113,118.5l0.5-0.6c0.3-0.4,0.6-0.6,1-0.6c0.4,0,0.7,0.3,0.7,0.8c0,0.4-0.3,0.8-0.7,1.2l-0.3,0.4l0.9,1
			c0.2,0.2,0.3,0.4,0.3,0.7c0,0.4-0.4,0.9-0.9,0.9c-0.3,0-0.5-0.1-0.7-0.3l-0.9-0.9c-0.8,0.7-1.7,1.2-2.9,1.2c-1.7,0-3.2-1-3.2-2.8
			c0-1.3,0.9-2.2,2-2.8c-0.5-0.5-0.9-1-0.9-1.8c0-1.5,1.4-2.2,2.7-2.2c1.2,0,2.7,0.7,2.7,2c0,1-0.8,1.9-1.7,2.3L113,118.5z
			 M109.8,117.7c-0.6,0.4-1.1,0.8-1.1,1.6c0,0.8,0.6,1.3,1.4,1.3c0.7,0,1.2-0.3,1.7-0.8L109.8,117.7z M110.6,114.2
			c-0.3,0-0.8,0.3-0.8,0.7c0,0.4,0.2,0.6,0.7,1.1c0.4-0.2,1-0.5,1-1C111.5,114.4,111,114.2,110.6,114.2z"/>
	</g>
</g>
</svg>
