<svg id="Logo" xmlns="http://www.w3.org/2000/svg" viewBox="0 0 54 85">
  <defs>
    <style>
      .cls-1 {
        fill: #44c9f6;
      }
    </style>
  </defs>
  <title>logo-mct-new</title>
  <g id="MCT">
    <path class="cls-1" d="M36.21,45.21,27,50.29l-9.21-5.08V55.83L23.31,59a7.37,7.37,0,0,0,7.38,0l5.52-3.18Z"/>
    <path class="cls-1" d="M50.28,12.3,30.69,1a7.37,7.37,0,0,0-7.38,0L3.72,12.3A7.38,7.38,0,0,0,0,18.69V41.31A7.38,7.38,0,0,0,3.72,47.7l3.41,2V19.94a1.59,1.59,0,0,1,2.39-1.38L27,28.42l17.47-9.86a1.59,1.59,0,0,1,2.39,1.38V49.67l3.41-2A7.38,7.38,0,0,0,54,41.31V18.69A7.38,7.38,0,0,0,50.28,12.3Z"/>
  </g>
  <g id="Icon">
    <path class="cls-1" d="M8.76,72.16c.28-1.64,1.27-2,2.06-2,1.56,0,1.91.91,2.7,3.38L15,78.29h0l1.53-4.72c.79-2.47,1.13-3.38,2.7-3.38.79,0,1.77.33,2.06,2l1.23,7.06c.26,1.43.53,3,.53,3.45a1.48,1.48,0,0,1-1.47,1.49c-1.41,0-1.66-1-1.81-2.07L18.92,76h0l-2.1,6.75c-.31,1-.77,1.41-1.72,1.41s-1.41-.41-1.71-1.41L11.24,76h0l-.92,6.09c-.16,1.06-.41,2.07-1.81,2.07A1.48,1.48,0,0,1,7,82.67c0-.46.27-2,.52-3.45Z"/>
    <path class="cls-1" d="M31.44,70c1.89,0,4.14.54,4.14,2.18a1.42,1.42,0,0,1-1.35,1.48c-.73,0-1.5-.65-2.72-.65C29,73,28,75.05,28,77.18s1.12,4,3.26,4c1.95,0,2.26-.64,3.07-.64A1.33,1.33,0,0,1,35.7,82c0,1.71-2.6,2.31-4.32,2.31-4.32,0-6.75-3.24-6.75-7.17C24.63,73,27.31,70,31.44,70Z"/>
    <path class="cls-1" d="M40.5,73.2H38.74a1.42,1.42,0,0,1-1.62-1.45c0-.9.58-1.44,1.62-1.44h6.64c1,0,1.62.54,1.62,1.44a1.42,1.42,0,0,1-1.62,1.45H43.62v9.3a1.56,1.56,0,1,1-3.12,0Z"/>
  </g>
</svg>
