<svg class="c-logo__mark" xmlns="http://www.w3.org/2000/svg" viewBox="0 0 452.73 634.49">
    <title>{{ .Site.Title }}</title>
    <polygon points="0 0 452.73 0 452.73 634.49 0 634.49 0 0 0 0" />
    <polygon class="c-logo__path" points="73.01 101.61 226.56 226.56 379.86 101.61 379.86 431.16 73.01 431.16 73.01 101.61 73.01 101.61" />
    <path class="c-logo__path" d="M98.71,475.38l27.55,67.21h1.17L155,475.38h26.08v100H160.55v-65.1h-.84l-25.88,64.62h-14L94,510.06h-.83v65.35H72.63v-100Z" />
    <path class="c-logo__path" d="M265.31,510.4c-1.61-11-10-17.68-21.54-17.68-15.48,0-25.64,11.87-25.64,32.68,0,21.39,10.31,32.67,25.5,32.67,11.28,0,19.68-6.15,21.68-16.85l21.4.1c-2.3,18.42-17.78,35.46-43.42,35.46-26.77,0-46.6-18.75-46.6-51.38S216.86,474,243.29,474c23.15,0,40.63,13.28,43.42,36.38Z" />
    <path class="c-logo__path" d="M298.09,475.38h82.15v17.44H349.62v82.59H328.71V492.82H298.09Z" />
</svg>
