<svg xmlns="http://www.w3.org/2000/svg" xmlns:xlink="http://www.w3.org/1999/xlink" width="714" height="174" viewBox="0 0 714 174">
  <defs>
    <clipPath id="clip-word-news">
      <rect width="714" height="174"/>
    </clipPath>
  </defs>
  <g id="word-news" clip-path="url(#clip-word-news)">
    <path id="Programma" d="M8.814-16.272c0,11.3,7.232,17.628,16.95,17.628s16.95-6.328,16.95-17.628v-84.3h.452L114.808-6.1c3.164,4.068,9.944,7.458,14.238,7.458,9.718,0,16.95-6.328,16.95-17.628V-144.64c0-11.3-7.232-17.628-16.95-17.628S112.1-155.94,112.1-144.64v85.428h-.452L40-154.81c-2.938-4.068-9.944-7.458-14.238-7.458-9.718,0-16.95,6.328-16.95,17.628Zm154.81-.452c0,10.848,6.78,18.08,16.272,18.08s16.272-7.232,16.272-18.08v-86.784c0-10.848-6.78-18.08-16.272-18.08s-16.272,7.232-16.272,18.08ZM179.9-170.4c-9.718,0-18.306,8.588-18.306,17.854,0,9.944,8.588,18.758,18.306,18.758,10.17,0,18.306-8.588,18.306-18.758C198.2-162.042,189.614-170.4,179.9-170.4ZM309.846-49.268c9.944,0,14.238-4.746,14.238-14.464,0-27.12-23.278-59.212-58.534-59.212-34.352,0-58.308,30.058-58.308,63.054,0,35.934,24.408,62.6,61.02,62.6,24.182,0,53.11-13.56,53.11-27.572,0-7.006-6.328-14.012-13.334-14.012-8.588,0-20.114,13.108-36.838,13.108-15.142,0-28.476-7.458-30.736-23.5Zm-70.06-21.7c1.582-13.786,11.3-24.86,25.764-24.86,15.142,0,24.182,10.622,25.99,24.86ZM335.61-44.748c0,28.928,19.21,47.46,53.562,47.46s53.562-18.532,53.562-47.46v-58.76c0-10.848-6.78-18.08-16.272-18.08s-16.272,7.232-16.272,18.08v58.082c0,13.56-10.17,21.018-21.018,21.018s-21.018-7.458-21.018-21.018v-58.082c0-10.848-6.78-18.08-16.272-18.08s-16.272,7.232-16.272,18.08ZM484.544-15.142c3.39,9.492,9.04,16.5,19.662,16.5,9.944,0,15.82-5.65,18.758-15.142l16.724-52.432h.452l16.724,52.432c2.938,9.492,8.814,15.142,18.758,15.142,10.622,0,16.272-7.006,19.662-16.5l27.8-78.422c1.582-4.972,3.164-8.588,3.164-12.2,0-9.944-6.78-15.82-16.272-15.82-7.91,0-13.56,5.2-15.368,12.882l-18.758,62.15H575.4L556.412-107.35c-2.486-8.814-7.006-14.238-16.5-14.238s-14.012,5.424-16.5,14.238L504.432-46.556h-.452l-18.758-62.15c-1.808-7.684-7.458-12.882-15.368-12.882-9.492,0-16.272,5.876-16.272,13.108,0,4.746,1.13,8.814,3.39,15.368Zm234.362-84.3c0-16.046-24.634-23.5-40.68-23.5-25.764,0-44.07,15.368-44.07,37.968,0,37.29,56.5,35.03,56.5,49.946,0,6.1-2.938,9.266-12.882,9.266-15.368,0-21.018-11.074-33.674-11.074-9.04,0-14.012,9.492-14.012,14.464,0,14.69,27.12,25.086,45.426,25.086,28.024,0,46.33-16.5,46.33-38.194,0-37.064-56.5-34.8-56.5-49.946,0-6.328,5.2-9.04,11.074-9.04,10.622,0,23.052,9.492,29.154,9.492C713.256-84.976,718.906-91.982,718.906-99.44Z" transform="translate(-8.814 170.404)" fill="rgba(37,36,40,0.05)"/>
  </g>
</svg>
