<svg xmlns="http://www.w3.org/2000/svg" xmlns:xlink="http://www.w3.org/1999/xlink" width="895" height="222" viewBox="0 0 895 222">
  <defs>
    <clipPath id="clip-word-projects">
      <rect width="895" height="222"/>
    </clipPath>
  </defs>
  <g id="word-projects" clip-path="url(#clip-word-projects)">
    <path id="Programma" d="M10.17-16.272c0,11.3,7.232,17.628,16.95,17.628S44.07-4.972,44.07-16.272V-53.336H69.156c30.962,0,56.5-20.566,56.5-53.562,0-32.318-24.634-54.014-57.856-54.014h-40c-11.3,0-17.628,7.006-17.628,17.628ZM44.07-131.08H67.122c14.238,0,23.278,10.4,23.278,23.956S81.36-83.168,67.122-83.168H44.07Zm90.4,114.356c0,10.848,6.78,18.08,16.272,18.08s16.272-7.232,16.272-18.08V-66.67c0-12.882,9.944-17.176,19.662-21.7s19.436-5.2,19.436-15.82c0-11.752-7.91-17.4-15.82-17.4-10.17,0-16.724,4.52-22.826,13.56h-.452c0-10.4-7.232-13.56-15.82-13.56-8.136,0-16.724,5.424-16.724,16.272Zm125.2-106.22c-34.352,0-58.308,30.058-58.308,63.054,0,33.9,23.278,62.6,58.308,62.6s58.308-28.7,58.308-62.6C317.982-92.886,294.026-122.944,259.674-122.944Zm0,29.832c17.854,0,25.764,17.628,25.764,33.222S277.3-27.12,259.674-27.12,233.91-44.3,233.91-59.89,241.82-93.112,259.674-93.112Zm71.642,124.3c0,10.848,6.78,18.08,16.272,18.08s16.272-7.232,16.272-18.08v-134.7c0-10.848-6.78-18.08-16.272-18.08s-16.272,7.232-16.272,18.08ZM347.588-170.4c-9.718,0-18.306,8.588-18.306,17.854,0,9.944,8.588,18.758,18.306,18.758,10.17,0,18.306-8.588,18.306-18.758C365.894-162.042,357.306-170.4,347.588-170.4ZM477.538-49.268c9.944,0,14.238-4.746,14.238-14.464,0-27.12-23.278-59.212-58.534-59.212-34.352,0-58.308,30.058-58.308,63.054,0,35.934,24.408,62.6,61.02,62.6,24.182,0,53.11-13.56,53.11-27.572,0-7.006-6.328-14.012-13.334-14.012-8.588,0-20.114,13.108-36.838,13.108-15.142,0-28.476-7.458-30.736-23.5Zm-70.06-21.7c1.582-13.786,11.3-24.86,25.764-24.86,15.142,0,24.182,10.622,25.99,24.86ZM596.64-102.378c0-15.82-26.894-20.566-39.776-20.566-34.352,0-58.308,30.058-58.308,63.054,0,33.9,23.278,62.6,58.308,62.6,11.752,0,39.776-5.65,39.776-22.374A14.279,14.279,0,0,0,582.628-33.9c-3.842,0-16.046,6.78-24.182,6.78-17.628,0-27.346-16.724-27.346-32.77,0-16.724,8.814-33.222,27.346-33.222,10.4,0,17.628,6.328,25.764,6.328C591.894-86.784,596.64-95.6,596.64-102.378Zm19.21,85.654c0,10.848,6.78,18.08,16.272,18.08s16.272-7.232,16.272-18.08V-91.756h9.266c8.362,0,15.594-4.068,15.594-14.238,0-10.4-7.232-14.238-15.594-14.238h-9.266v-19.436c0-10.848-6.78-18.08-16.272-18.08s-16.272,7.232-16.272,18.08v19.436h-7.232a13.9,13.9,0,0,0-14.238,14.238c0,8.814,5.424,14.238,14.238,14.238h7.232ZM770.434-49.268c9.944,0,14.238-4.746,14.238-14.464,0-27.12-23.278-59.212-58.534-59.212-34.352,0-58.308,30.058-58.308,63.054,0,35.934,24.408,62.6,61.02,62.6,24.182,0,53.11-13.56,53.11-27.572,0-7.006-6.328-14.012-13.334-14.012-8.588,0-20.114,13.108-36.838,13.108-15.142,0-28.476-7.458-30.736-23.5Zm-70.06-21.7c1.582-13.786,11.3-24.86,25.764-24.86,15.142,0,24.182,10.622,25.99,24.86ZM796.2-16.724c0,10.848,6.78,18.08,16.272,18.08s16.272-7.232,16.272-18.08V-73.45c0-12.656,7.458-22.374,20.792-22.374,11.752,0,21.244,7.232,21.244,22.374v56.726c0,10.848,6.78,18.08,16.272,18.08s16.272-7.232,16.272-18.08V-79.1c0-27.572-18.984-43.844-44.522-43.844-15.368,0-25.086,4.52-31.414,13.334-1.13-7.458-6.554-11.978-14.916-11.978-9.492,0-16.272,7.232-16.272,18.08Z" transform="translate(-10.17 170.404)" fill="rgba(37,36,40,0.05)"/>
  </g>
</svg>
